<svg id="visual" viewBox="0 0 900 600" width="900" height="600" xmlns="http://www.w3.org/2000/svg" xmlns:xlink="http://www.w3.org/1999/xlink" version="1.1"><path d="M0 358L21.5 362.5C43 367 86 376 128.8 385.2C171.7 394.3 214.3 403.7 257.2 412C300 420.3 343 427.7 385.8 418.3C428.7 409 471.3 383 514.2 373.8C557 364.7 600 372.3 642.8 385C685.7 397.7 728.3 415.3 771.2 422.3C814 429.3 857 425.7 878.5 423.8L900 422L900 601L878.5 601C857 601 814 601 771.2 601C728.3 601 685.7 601 642.8 601C600 601 557 601 514.2 601C471.3 601 428.7 601 385.8 601C343 601 300 601 257.2 601C214.3 601 171.7 601 128.8 601C86 601 43 601 21.5 601L0 601Z" fill="#e0e0e0"></path><path d="M0 459L21.5 462C43 465 86 471 128.8 470.8C171.7 470.7 214.3 464.3 257.2 459.5C300 454.7 343 451.3 385.8 441.2C428.7 431 471.3 414 514.2 416.5C557 419 600 441 642.8 443C685.7 445 728.3 427 771.2 418.2C814 409.3 857 409.7 878.5 409.8L900 410L900 601L878.5 601C857 601 814 601 771.2 601C728.3 601 685.7 601 642.8 601C600 601 557 601 514.2 601C471.3 601 428.7 601 385.8 601C343 601 300 601 257.2 601C214.3 601 171.7 601 128.8 601C86 601 43 601 21.5 601L0 601Z" fill="#cacaca"></path><path d="M0 450L21.5 452.5C43 455 86 460 128.8 463.2C171.7 466.3 214.3 467.7 257.2 467C300 466.3 343 463.7 385.8 467.2C428.7 470.7 471.3 480.3 514.2 479.2C557 478 600 466 642.8 463.5C685.7 461 728.3 468 771.2 470.3C814 472.7 857 470.3 878.5 469.2L900 468L900 601L878.5 601C857 601 814 601 771.2 601C728.3 601 685.7 601 642.8 601C600 601 557 601 514.2 601C471.3 601 428.7 601 385.8 601C343 601 300 601 257.2 601C214.3 601 171.7 601 128.8 601C86 601 43 601 21.5 601L0 601Z" fill="#b5b5b5"></path><path d="M0 529L21.5 529C43 529 86 529 128.8 527.8C171.7 526.7 214.3 524.3 257.2 517.8C300 511.3 343 500.7 385.8 496.7C428.7 492.7 471.3 495.3 514.2 493.7C557 492 600 486 642.8 489C685.7 492 728.3 504 771.2 508.7C814 513.3 857 510.7 878.5 509.3L900 508L900 601L878.5 601C857 601 814 601 771.2 601C728.3 601 685.7 601 642.8 601C600 601 557 601 514.2 601C471.3 601 428.7 601 385.8 601C343 601 300 601 257.2 601C214.3 601 171.7 601 128.8 601C86 601 43 601 21.5 601L0 601Z" fill="#a0a0a0"></path><path d="M0 537L21.5 537.2C43 537.3 86 537.7 128.8 542.8C171.7 548 214.3 558 257.2 555.8C300 553.7 343 539.3 385.8 535.7C428.7 532 471.3 539 514.2 544.5C557 550 600 554 642.8 558C685.7 562 728.3 566 771.2 561.7C814 557.3 857 544.7 878.5 538.3L900 532L900 601L878.5 601C857 601 814 601 771.2 601C728.3 601 685.7 601 642.8 601C600 601 557 601 514.2 601C471.3 601 428.7 601 385.8 601C343 601 300 601 257.2 601C214.3 601 171.7 601 128.8 601C86 601 43 601 21.5 601L0 601Z" fill="#8c8c8c"></path></svg>